<?xml version="1.0" encoding="UTF-8" standalone="no"?>
<svg
   xmlns:dc="http://purl.org/dc/elements/1.1/"
   xmlns:cc="http://creativecommons.org/ns#"
   xmlns:rdf="http://www.w3.org/1999/02/22-rdf-syntax-ns#"
   xmlns:svg="http://www.w3.org/2000/svg"
   xmlns="http://www.w3.org/2000/svg"
   xmlns:sodipodi="http://sodipodi.sourceforge.net/DTD/sodipodi-0.dtd"
   xmlns:inkscape="http://www.inkscape.org/namespaces/inkscape"
   viewBox="0 0 512 512"
   id="svg2"
   version="1.1"
   inkscape:version="0.48.4 r9939"
   width="100%"
   height="100%"
   sodipodi:docname="orientator.svg"
   inkscape:export-filename="/home/jami/Projects/java/invaders/assets/orientator.png"
   inkscape:export-xdpi="61.02"
   inkscape:export-ydpi="61.02">
  <metadata
     id="metadata32">
    <rdf:RDF>
      <cc:Work
         rdf:about="">
        <dc:format>image/svg+xml</dc:format>
        <dc:type
           rdf:resource="http://purl.org/dc/dcmitype/StillImage" />
        <dc:title></dc:title>
      </cc:Work>
    </rdf:RDF>
  </metadata>
  <defs
     id="defs30" />
  <sodipodi:namedview
     pagecolor="#ffffff"
     bordercolor="#666666"
     borderopacity="1"
     objecttolerance="10"
     gridtolerance="10"
     guidetolerance="10"
     inkscape:pageopacity="0"
     inkscape:pageshadow="2"
     inkscape:window-width="1920"
     inkscape:window-height="1051"
     id="namedview28"
     showgrid="false"
     inkscape:zoom="0.921875"
     inkscape:cx="32.610976"
     inkscape:cy="249.37462"
     inkscape:window-x="0"
     inkscape:window-y="0"
     inkscape:window-maximized="1"
     inkscape:current-layer="g6" />
  <g
     transform="matrix(18.68858,0,0,18.68858,-5674.69017,-230.9801)"
     id="g6"
     style="fill:#cccccc">
    <path
       style="fill:#cccccc;fill-opacity:0.94117647"
       d="M 255.875 19.53125 C 198.35807 19.486932 140.86619 40.3316 95.75 82.15625 L 108.78125 95.1875 C 147.57284 59.652461 199.2464 37.96875 256 37.96875 C 312.73781 37.96875 364.39953 59.638807 403.1875 95.15625 L 416.09375 82.25 C 370.91429 40.514785 313.39193 19.575568 255.875 19.53125 z M 82.53125 95.375 C -0.73254113 185.64013 -0.69766016 325.48619 82.625 415.71875 L 95.15625 403.1875 C 59.638807 364.39953 37.96875 312.73781 37.96875 256 C 37.96875 199.05635 59.784228 147.20974 95.53125 108.375 L 82.53125 95.375 z M 429.3125 95.4375 L 416.40625 108.34375 C 452.17943 147.18375 474.03125 199.03293 474.03125 256 C 474.03125 312.7536 452.34754 364.42716 416.8125 403.21875 L 429.21875 415.625 C 512.9705 325.32004 513.01117 185.76817 429.3125 95.4375 z M 108.34375 416.40625 L 95.8125 428.9375 C 186.01611 512.48629 325.66314 512.21154 416 428.84375 L 403.625 416.46875 C 364.79026 452.21577 312.94365 474.03125 256 474.03125 C 199.03293 474.03125 147.18375 452.17943 108.34375 416.40625 z "
       transform="matrix(0.05350861,0,0,0.05350861,303.6448,12.359425)"
       id="path8"
       inkscape:export-filename="/home/jami/Projects/java/invaders/assets/path8.png"
       inkscape:export-xdpi="61.02"
       inkscape:export-ydpi="61.02" />
  </g>
</svg>
